<?xml version="1.0" encoding="UTF-8" standalone="no"?>
<!DOCTYPE svg PUBLIC "-//W3C//DTD SVG 1.0//EN" "http://www.w3.org/TR/2001/PR-SVG-20010719/DTD/svg10.dtd">
<svg width="57cm" height="35cm" viewBox="433 212 1127 682" xmlns="http://www.w3.org/2000/svg" xmlns:xlink="http://www.w3.org/1999/xlink">
  <g id="Arrière-plan">
    <g>
      <rect style="fill: #ffffff; fill-opacity: 1; stroke-opacity: 1; stroke-width: 2; stroke: #000000" x="624" y="214" width="935" height="679.75" rx="0" ry="0"/>
      <text font-size="12.8" style="fill: #000000; fill-opacity: 1; stroke: none;text-anchor:middle;font-family:sans-serif;font-style:normal;font-weight:normal" x="1091.5" y="557.756">
        <tspan x="1091.5" y="557.756"></tspan>
      </text>
    </g>
    <g>
      <rect style="fill: #ffffff; fill-opacity: 1; stroke-opacity: 1; stroke-width: 2; stroke: #000000" x="649" y="426.75" width="675" height="457" rx="0" ry="0"/>
      <text font-size="12.8" style="fill: #000000; fill-opacity: 1; stroke: none;text-anchor:middle;font-family:sans-serif;font-style:normal;font-weight:normal" x="986.5" y="659.131">
        <tspan x="986.5" y="659.131"></tspan>
      </text>
    </g>
    <g>
      <ellipse style="fill: #ffffff; fill-opacity: 1; stroke-opacity: 1; stroke-width: 2; stroke: #000000" cx="474" cy="564" rx="6" ry="6"/>
      <line style="fill: none; stroke-opacity: 1; stroke-width: 2; stroke: #000000" x1="450" y1="576" x2="498" y2="576"/>
      <line style="fill: none; stroke-opacity: 1; stroke-width: 2; stroke: #000000" x1="474" y1="570" x2="474" y2="600"/>
      <line style="fill: none; stroke-opacity: 1; stroke-width: 2; stroke: #000000" x1="474" y1="600" x2="450" y2="626"/>
      <line style="fill: none; stroke-opacity: 1; stroke-width: 2; stroke: #000000" x1="474" y1="600" x2="498" y2="626"/>
      <text font-size="12.8" style="fill: #000000; fill-opacity: 1; stroke: none;text-anchor:middle;font-family:sans-serif;font-style:normal;font-weight:normal" x="474" y="649.881">
        <tspan x="474" y="649.881">Gestionnaire</tspan>
      </text>
    </g>
    <g>
      <ellipse style="fill: #ffffff; fill-opacity: 1; stroke-opacity: 1; stroke-width: 2; stroke: #000000" cx="474" cy="282" rx="6" ry="6"/>
      <line style="fill: none; stroke-opacity: 1; stroke-width: 2; stroke: #000000" x1="450" y1="294" x2="498" y2="294"/>
      <line style="fill: none; stroke-opacity: 1; stroke-width: 2; stroke: #000000" x1="474" y1="288" x2="474" y2="318"/>
      <line style="fill: none; stroke-opacity: 1; stroke-width: 2; stroke: #000000" x1="474" y1="318" x2="450" y2="344"/>
      <line style="fill: none; stroke-opacity: 1; stroke-width: 2; stroke: #000000" x1="474" y1="318" x2="498" y2="344"/>
      <text font-size="12.8" style="fill: #000000; fill-opacity: 1; stroke: none;text-anchor:middle;font-family:sans-serif;font-style:normal;font-weight:normal" x="474" y="367.881">
        <tspan x="474" y="367.881">Utilisateur</tspan>
      </text>
    </g>
    <g>
      <rect style="fill: #ffffff; fill-opacity: 1; stroke-opacity: 1; stroke-width: 2; stroke: #000000" x="645" y="290" width="247.65" height="36" rx="20" ry="20"/>
      <text font-size="12.8" style="fill: #000000; fill-opacity: 1; stroke: none;text-anchor:middle;font-family:sans-serif;font-style:normal;font-weight:normal" x="768.825" y="311.881">
        <tspan x="768.825" y="311.881">Consulter la liste des pensionnaires</tspan>
      </text>
    </g>
    <g>
      <rect style="fill: #ffffff; fill-opacity: 1; stroke-opacity: 1; stroke-width: 2; stroke: #000000" x="645" y="348" width="306.7" height="36" rx="20" ry="20"/>
      <text font-size="12.8" style="fill: #000000; fill-opacity: 1; stroke: none;text-anchor:middle;font-family:sans-serif;font-style:normal;font-weight:normal" x="798.35" y="369.881">
        <tspan x="798.35" y="369.881">Consulter les informations d'un pensionnaire</tspan>
      </text>
    </g>
    <g>
      <rect style="fill: #ffffff; fill-opacity: 1; stroke-opacity: 1; stroke-width: 2; stroke: #000000" x="659" y="509" width="162.95" height="36" rx="20" ry="20"/>
      <text font-size="12.8" style="fill: #000000; fill-opacity: 1; stroke: none;text-anchor:middle;font-family:sans-serif;font-style:normal;font-weight:normal" x="740.475" y="530.881">
        <tspan x="740.475" y="530.881">Gérer un pensionnaire</tspan>
      </text>
    </g>
    <g>
      <rect style="fill: #ffffff; fill-opacity: 1; stroke-opacity: 1; stroke-width: 2; stroke: #000000" x="659" y="678" width="144.65" height="36" rx="20" ry="20"/>
      <text font-size="12.8" style="fill: #000000; fill-opacity: 1; stroke: none;text-anchor:middle;font-family:sans-serif;font-style:normal;font-weight:normal" x="731.325" y="699.881">
        <tspan x="731.325" y="699.881">Gérer une adoption</tspan>
      </text>
    </g>
    <g>
      <rect style="fill: #ffffff; fill-opacity: 1; stroke-opacity: 1; stroke-width: 2; stroke: #000000" x="959" y="795" width="156.65" height="36" rx="20" ry="20"/>
      <text font-size="12.8" style="fill: #000000; fill-opacity: 1; stroke: none;text-anchor:middle;font-family:sans-serif;font-style:normal;font-weight:normal" x="1037.33" y="816.881">
        <tspan x="1037.33" y="816.881">Enregistrer un maître</tspan>
      </text>
    </g>
    <g>
      <rect style="fill: #ffffff; fill-opacity: 1; stroke-opacity: 1; stroke-width: 2; stroke: #000000" x="659" y="811" width="240.35" height="36" rx="20" ry="20"/>
      <text font-size="12.8" style="fill: #000000; fill-opacity: 1; stroke: none;text-anchor:middle;font-family:sans-serif;font-style:normal;font-weight:normal" x="779.175" y="832.881">
        <tspan x="779.175" y="832.881">Gérer les informations d'un maître</tspan>
      </text>
    </g>
    <g>
      <rect style="fill: #ffffff; fill-opacity: 1; stroke-opacity: 1; stroke-width: 2; stroke: #000000" x="872" y="586" width="221.8" height="36" rx="20" ry="20"/>
      <text font-size="12.8" style="fill: #000000; fill-opacity: 1; stroke: none;text-anchor:middle;font-family:sans-serif;font-style:normal;font-weight:normal" x="982.9" y="607.881">
        <tspan x="982.9" y="607.881">Gérer le changement de refuge</tspan>
      </text>
    </g>
    <g>
      <rect style="fill: #ffffff; fill-opacity: 1; stroke-opacity: 1; stroke-width: 2; stroke: #000000" x="871" y="715" width="226.2" height="36" rx="20" ry="20"/>
      <text font-size="12.8" style="fill: #000000; fill-opacity: 1; stroke: none;text-anchor:middle;font-family:sans-serif;font-style:normal;font-weight:normal" x="984.1" y="736.881">
        <tspan x="984.1" y="736.881">Enregistrer un retour d'adoption</tspan>
      </text>
    </g>
    <line style="fill: none; stroke-opacity: 1; stroke-width: 2; stroke: #000000" x1="499" y1="318" x2="645" y2="308"/>
    <line style="fill: none; stroke-opacity: 1; stroke-width: 2; stroke: #000000" x1="499" y1="318" x2="645" y2="366"/>
    <line style="fill: none; stroke-opacity: 1; stroke-width: 2; stroke: #000000" x1="499" y1="600" x2="659" y2="527"/>
    <line style="fill: none; stroke-opacity: 1; stroke-width: 2; stroke: #000000" x1="499" y1="600" x2="659" y2="696"/>
    <line style="fill: none; stroke-opacity: 1; stroke-width: 2; stroke: #000000" x1="499" y1="600" x2="659" y2="829"/>
    <g>
      <rect style="fill: #ffffff; fill-opacity: 1; stroke-opacity: 1; stroke-width: 2; stroke: #000000" x="1424" y="536" width="106.463" height="36" rx="20" ry="20"/>
      <text font-size="12.8" style="fill: #000000; fill-opacity: 1; stroke: none;text-anchor:middle;font-family:sans-serif;font-style:normal;font-weight:normal" x="1477.23" y="557.881">
        <tspan x="1477.23" y="557.881">S'authentifier</tspan>
      </text>
    </g>
    <g>
      <polyline style="fill: none; stroke-opacity: 1; stroke-width: 2; stroke-dasharray: 8; stroke: #000000" points="1324,655.25 1367,655.25 1367,554 1417.29,554 "/>
      <polyline style="fill: none; stroke-opacity: 1; stroke-width: 2; stroke: #000000" points="1404.65,559 1420.65,554 1404.65,549 "/>
      <text font-size="12.8" style="fill: #000000; fill-opacity: 1; stroke: none;text-anchor:start;font-family:monospace;font-style:normal;font-weight:normal" x="1369" y="601.606">&lt;&lt;include&gt;&gt;</text>
    </g>
    <text font-size="12.8" style="fill: #000000; fill-opacity: 1; stroke: none;text-anchor:start;font-family:sans-serif;font-style:normal;font-weight:normal" x="1063.68" y="243">
      <tspan x="1063.68" y="243">Animalia</tspan>
    </text>
    <g>
      <polyline style="fill: none; stroke-opacity: 1; stroke-width: 2; stroke: #000000" points="474,390.236 474,467 474,467 474,546 "/>
      <polygon style="fill: #ffffff; fill-opacity: 1; stroke-opacity: 1; stroke-width: 2; stroke: #000000" fill-rule="evenodd" points="482,390.236 474,374.236 466,390.236 "/>
    </g>
    <g>
      <rect style="fill: #ffffff; fill-opacity: 1; stroke-opacity: 1; stroke-width: 2; stroke: #000000" x="872" y="485.75" width="197.3" height="36" rx="20" ry="20"/>
      <text font-size="12.7998" style="fill: #000000; fill-opacity: 1; stroke: none;text-anchor:middle;font-family:sans-serif;font-style:normal;font-weight:normal" x="970.65" y="507.631">
        <tspan x="970.65" y="507.631">Enregistrer un pensionnaire</tspan>
      </text>
    </g>
    <g>
      <rect style="fill: #ffffff; fill-opacity: 1; stroke-opacity: 1; stroke-width: 2; stroke: #000000" x="872" y="533.75" width="296.8" height="36" rx="20" ry="20"/>
      <text font-size="12.7998" style="fill: #000000; fill-opacity: 1; stroke: none;text-anchor:middle;font-family:sans-serif;font-style:normal;font-weight:normal" x="1020.4" y="555.631">
        <tspan x="1020.4" y="555.631">Modifier les informations d'un pensionnaire</tspan>
      </text>
    </g>
    <g>
      <rect style="fill: #ffffff; fill-opacity: 1; stroke-opacity: 1; stroke-width: 2; stroke: #000000" x="876" y="641.75" width="179" height="36" rx="20" ry="20"/>
      <text font-size="12.7998" style="fill: #000000; fill-opacity: 1; stroke: none;text-anchor:middle;font-family:sans-serif;font-style:normal;font-weight:normal" x="965.5" y="663.631">
        <tspan x="965.5" y="663.631">Enregistrer une adoption</tspan>
      </text>
    </g>
    <g>
      <polyline style="fill: none; stroke-opacity: 1; stroke-width: 2; stroke: #000000" points="840.186,527 854.975,527 854.975,503.75 872,503.75 "/>
      <polygon style="fill: #ffffff; fill-opacity: 1; stroke-opacity: 1; stroke-width: 2; stroke: #000000" fill-rule="evenodd" points="840.186,519 824.186,527 840.186,535 "/>
    </g>
    <g>
      <polyline style="fill: none; stroke-opacity: 1; stroke-width: 2; stroke: #000000" points="840.186,527 854.975,527 854.975,551.75 872,551.75 "/>
      <polygon style="fill: #ffffff; fill-opacity: 1; stroke-opacity: 1; stroke-width: 2; stroke: #000000" fill-rule="evenodd" points="840.186,519 824.186,527 840.186,535 "/>
    </g>
    <g>
      <polyline style="fill: none; stroke-opacity: 1; stroke-width: 2; stroke: #000000" points="841.191,527 855.478,527 855.478,604 872,604 "/>
      <polygon style="fill: #ffffff; fill-opacity: 1; stroke-opacity: 1; stroke-width: 2; stroke: #000000" fill-rule="evenodd" points="841.191,519 825.191,527 841.191,535 "/>
    </g>
    <g>
      <polyline style="fill: none; stroke-opacity: 1; stroke-width: 2; stroke: #000000" points="821.886,696 847.825,696 847.825,659.75 876,659.75 "/>
      <polygon style="fill: #ffffff; fill-opacity: 1; stroke-opacity: 1; stroke-width: 2; stroke: #000000" fill-rule="evenodd" points="821.886,688 805.886,696 821.886,704 "/>
    </g>
    <g>
      <polyline style="fill: none; stroke-opacity: 1; stroke-width: 2; stroke: #000000" points="822.895,696 845.829,696 845.829,733 871,733 "/>
      <polygon style="fill: #ffffff; fill-opacity: 1; stroke-opacity: 1; stroke-width: 2; stroke: #000000" fill-rule="evenodd" points="822.895,688 806.895,696 822.895,704 "/>
    </g>
    <g>
      <polyline style="fill: none; stroke-opacity: 1; stroke-width: 2; stroke-dasharray: 8; stroke: #000000" points="779.175,811 779.175,780.75 1185,780.75 1185,659.75 1061.71,659.75 "/>
      <polyline style="fill: none; stroke-opacity: 1; stroke-width: 2; stroke: #000000" points="1074.35,654.75 1058.35,659.75 1074.35,664.75 "/>
      <text font-size="12.7998" style="fill: #000000; fill-opacity: 1; stroke: none;text-anchor:middle;font-family:monospace;font-style:normal;font-weight:normal" x="982.087" y="780.75">&lt;&lt;extend&gt;&gt;</text>
    </g>
    <g>
      <rect style="fill: #ffffff; fill-opacity: 1; stroke-opacity: 1; stroke-width: 2; stroke: #000000" x="959" y="841.75" width="255.95" height="36" rx="20" ry="20"/>
      <text font-size="12.7998" style="fill: #000000; fill-opacity: 1; stroke: none;text-anchor:middle;font-family:sans-serif;font-style:normal;font-weight:normal" x="1086.98" y="863.631">
        <tspan x="1086.98" y="863.631">Modifier les informations d'un maître</tspan>
      </text>
    </g>
    <g>
      <polyline style="fill: none; stroke-opacity: 1; stroke-width: 2; stroke: #000000" points="917.586,829 937.175,829 937.175,813 959,813 "/>
      <polygon style="fill: #ffffff; fill-opacity: 1; stroke-opacity: 1; stroke-width: 2; stroke: #000000" fill-rule="evenodd" points="917.586,821 901.586,829 917.586,837 "/>
    </g>
    <g>
      <polyline style="fill: none; stroke-opacity: 1; stroke-width: 2; stroke: #000000" points="917.586,829 937.175,829 937.175,859.75 959,859.75 "/>
      <polygon style="fill: #ffffff; fill-opacity: 1; stroke-opacity: 1; stroke-width: 2; stroke: #000000" fill-rule="evenodd" points="917.586,821 901.586,829 917.586,837 "/>
    </g>
  </g>
</svg>
