<?xml version="1.0" encoding="UTF-8" standalone="no"?><svg xmlns="http://www.w3.org/2000/svg" xmlns:xlink="http://www.w3.org/1999/xlink" contentScriptType="application/ecmascript" contentStyleType="text/css" height="700px" preserveAspectRatio="none" style="width:498px;height:700px;background:#FFFFFF;" version="1.1" viewBox="0 0 498 700" width="498px" zoomAndPan="magnify"><defs><filter height="300%" id="fxz1nzts3tmsa" width="300%" x="-1" y="-1"><feGaussianBlur result="blurOut" stdDeviation="2.0"/><feColorMatrix in="blurOut" result="blurOut2" type="matrix" values="0 0 0 0 0 0 0 0 0 0 0 0 0 0 0 0 0 0 .4 0"/><feOffset dx="4.0" dy="4.0" in="blurOut2" result="blurOut3"/><feBlend in="SourceGraphic" in2="blurOut3" mode="normal"/></filter></defs><g><text fill="#000000" font-family="sans-serif" font-size="18" lengthAdjust="spacing" textLength="266" x="114" y="28.708">UC : Enregistrer une adoption</text><rect fill="#FFFFFF" filter="url(#fxz1nzts3tmsa)" height="135.4688" style="stroke:#000000;stroke-width:2.0;" width="330" x="20" y="198.5156"/><rect fill="#FFFFFF" height="89.2031" style="stroke:none;stroke-width:1.0;" width="330" x="20" y="244.7813"/><rect fill="#FFFFFF" filter="url(#fxz1nzts3tmsa)" height="192.6016" style="stroke:#000000;stroke-width:2.0;" width="474" x="10" y="377.1172"/><rect fill="#FFFFFF" filter="url(#fxz1nzts3tmsa)" height="90.2031" style="stroke:#000000;stroke-width:2.0;" width="330" x="20" y="472.5156"/><rect fill="#FFFFFF" height="43.9375" style="stroke:none;stroke-width:1.0;" width="330" x="20" y="518.7813"/><line style="stroke:#A80036;stroke-width:1.0;stroke-dasharray:5.0,5.0;" x1="77" x2="77" y1="123.25" y2="615.8516"/><line style="stroke:#A80036;stroke-width:1.0;stroke-dasharray:5.0,5.0;" x1="325" x2="325" y1="123.25" y2="615.8516"/><text fill="#000000" font-family="sans-serif" font-size="14" lengthAdjust="spacing" textLength="88" x="30" y="119.9482">Gestionnaire</text><ellipse cx="77" cy="49.9531" fill="#FEFECE" filter="url(#fxz1nzts3tmsa)" rx="8" ry="8" style="stroke:#A80036;stroke-width:2.0;"/><path d="M77,57.9531 L77,84.9531 M64,65.9531 L90,65.9531 M77,84.9531 L64,99.9531 M77,84.9531 L90,99.9531 " fill="none" filter="url(#fxz1nzts3tmsa)" style="stroke:#A80036;stroke-width:2.0;"/><text fill="#000000" font-family="sans-serif" font-size="14" lengthAdjust="spacing" textLength="88" x="30" y="627.8467">Gestionnaire</text><ellipse cx="77" cy="641.1484" fill="#FEFECE" filter="url(#fxz1nzts3tmsa)" rx="8" ry="8" style="stroke:#A80036;stroke-width:2.0;"/><path d="M77,649.1484 L77,676.1484 M64,657.1484 L90,657.1484 M77,676.1484 L64,691.1484 M77,676.1484 L90,691.1484 " fill="none" filter="url(#fxz1nzts3tmsa)" style="stroke:#A80036;stroke-width:2.0;"/><rect fill="#FEFECE" filter="url(#fxz1nzts3tmsa)" height="30.2969" style="stroke:#A80036;stroke-width:1.5;" width="26" x="310" y="87.9531"/><text fill="#000000" font-family="sans-serif" font-size="14" lengthAdjust="spacing" textLength="12" x="317" y="107.9482">SI</text><rect fill="#FEFECE" filter="url(#fxz1nzts3tmsa)" height="30.2969" style="stroke:#A80036;stroke-width:1.5;" width="26" x="310" y="614.8516"/><text fill="#000000" font-family="sans-serif" font-size="14" lengthAdjust="spacing" textLength="12" x="317" y="634.8467">SI</text><polygon fill="#A80036" points="313,150.3828,323,154.3828,313,158.3828,317,154.3828" style="stroke:#A80036;stroke-width:1.0;"/><line style="stroke:#A80036;stroke-width:1.0;" x1="77" x2="319" y1="154.3828" y2="154.3828"/><text fill="#000000" font-family="sans-serif" font-size="13" lengthAdjust="spacing" textLength="158" x="84" y="149.3169">Enregistrer une adoption</text><polygon fill="#A80036" points="88,179.5156,78,183.5156,88,187.5156,84,183.5156" style="stroke:#A80036;stroke-width:1.0;"/><line style="stroke:#A80036;stroke-width:1.0;stroke-dasharray:2.0,2.0;" x1="82" x2="324" y1="183.5156" y2="183.5156"/><text fill="#000000" font-family="sans-serif" font-size="13" lengthAdjust="spacing" textLength="125" x="94" y="178.4497">OK, choix du maître</text><path d="M20,198.5156 L84,198.5156 L84,205.5156 L74,215.5156 L20,215.5156 L20,198.5156 " fill="#EEEEEE" style="stroke:#000000;stroke-width:1.0;"/><rect fill="none" height="135.4688" style="stroke:#000000;stroke-width:2.0;" width="330" x="20" y="198.5156"/><text fill="#000000" font-family="sans-serif" font-size="13" font-weight="bold" lengthAdjust="spacing" textLength="19" x="35" y="211.5825">alt</text><text fill="#000000" font-family="sans-serif" font-size="11" font-weight="bold" lengthAdjust="spacing" textLength="94" x="99" y="210.7261">[Maitre connu]</text><polygon fill="#A80036" points="313,232.7813,323,236.7813,313,240.7813,317,236.7813" style="stroke:#A80036;stroke-width:1.0;"/><line style="stroke:#A80036;stroke-width:1.0;" x1="77" x2="319" y1="236.7813" y2="236.7813"/><text fill="#000000" font-family="sans-serif" font-size="13" lengthAdjust="spacing" textLength="101" x="84" y="231.7153">Choix du maître</text><line style="stroke:#000000;stroke-width:1.0;stroke-dasharray:2.0,2.0;" x1="20" x2="350" y1="245.7813" y2="245.7813"/><text fill="#000000" font-family="sans-serif" font-size="11" font-weight="bold" lengthAdjust="spacing" textLength="122" x="25" y="255.9917">[Maitre non connu]</text><rect fill="#FFFFFF" filter="url(#fxz1nzts3tmsa)" height="40.2656" style="stroke:#000000;stroke-width:2.0;" width="312" x="27" y="259.5859"/><path d="M27,259.5859 L93,259.5859 L93,266.5859 L83,276.5859 L27,276.5859 L27,259.5859 " fill="#EEEEEE" style="stroke:#000000;stroke-width:2.0;"/><text fill="#000000" font-family="sans-serif" font-size="13" font-weight="bold" lengthAdjust="spacing" textLength="21" x="40" y="273.6528">ref</text><text fill="#000000" font-family="sans-serif" font-size="13" lengthAdjust="spacing" textLength="201" x="84.5" y="292.6528">VOIR UC : Enregistrer un maître</text><polygon fill="#A80036" points="313,321.9844,323,325.9844,313,329.9844,317,325.9844" style="stroke:#A80036;stroke-width:1.0;"/><line style="stroke:#A80036;stroke-width:1.0;" x1="77" x2="319" y1="325.9844" y2="325.9844"/><text fill="#000000" font-family="sans-serif" font-size="13" lengthAdjust="spacing" textLength="101" x="84" y="320.9185">Choix du maître</text><polygon fill="#A80036" points="88,358.1172,78,362.1172,88,366.1172,84,362.1172" style="stroke:#A80036;stroke-width:1.0;"/><line style="stroke:#A80036;stroke-width:1.0;stroke-dasharray:2.0,2.0;" x1="82" x2="324" y1="362.1172" y2="362.1172"/><text fill="#000000" font-family="sans-serif" font-size="13" lengthAdjust="spacing" textLength="224" x="94" y="357.0513">OK, affichage formulaire d'adoption</text><path d="M10,377.1172 L87,377.1172 L87,384.1172 L77,394.1172 L10,394.1172 L10,377.1172 " fill="#EEEEEE" style="stroke:#000000;stroke-width:1.0;"/><rect fill="none" height="192.6016" style="stroke:#000000;stroke-width:2.0;" width="474" x="10" y="377.1172"/><text fill="#000000" font-family="sans-serif" font-size="13" font-weight="bold" lengthAdjust="spacing" textLength="32" x="25" y="390.1841">loop</text><text fill="#000000" font-family="sans-serif" font-size="11" font-weight="bold" lengthAdjust="spacing" textLength="180" x="102" y="389.3276">[TANT QUE : Saisie invalide]</text><polygon fill="#A80036" points="313,411.3828,323,415.3828,313,419.3828,317,415.3828" style="stroke:#A80036;stroke-width:1.0;"/><line style="stroke:#A80036;stroke-width:1.0;" x1="77" x2="319" y1="415.3828" y2="415.3828"/><text fill="#000000" font-family="sans-serif" font-size="13" lengthAdjust="spacing" textLength="107" x="84" y="410.3169">Saisie formulaire</text><line style="stroke:#A80036;stroke-width:1.0;" x1="325" x2="367" y1="444.5156" y2="444.5156"/><line style="stroke:#A80036;stroke-width:1.0;" x1="367" x2="367" y1="444.5156" y2="457.5156"/><line style="stroke:#A80036;stroke-width:1.0;" x1="326" x2="367" y1="457.5156" y2="457.5156"/><polygon fill="#A80036" points="336,453.5156,326,457.5156,336,461.5156,332,457.5156" style="stroke:#A80036;stroke-width:1.0;"/><text fill="#000000" font-family="sans-serif" font-size="13" lengthAdjust="spacing" textLength="140" x="332" y="439.4497">Vérification formulaire</text><path d="M20,472.5156 L84,472.5156 L84,479.5156 L74,489.5156 L20,489.5156 L20,472.5156 " fill="#EEEEEE" style="stroke:#000000;stroke-width:1.0;"/><rect fill="none" height="90.2031" style="stroke:#000000;stroke-width:2.0;" width="330" x="20" y="472.5156"/><text fill="#000000" font-family="sans-serif" font-size="13" font-weight="bold" lengthAdjust="spacing" textLength="19" x="35" y="485.5825">alt</text><text fill="#000000" font-family="sans-serif" font-size="11" font-weight="bold" lengthAdjust="spacing" textLength="91" x="99" y="484.7261">[saisie valide]</text><polygon fill="#A80036" points="88,506.7813,78,510.7813,88,514.7813,84,510.7813" style="stroke:#A80036;stroke-width:1.0;"/><line style="stroke:#A80036;stroke-width:1.0;stroke-dasharray:2.0,2.0;" x1="82" x2="324" y1="510.7813" y2="510.7813"/><text fill="#000000" font-family="sans-serif" font-size="13" lengthAdjust="spacing" textLength="90" x="94" y="505.7153">Formulaire OK</text><line style="stroke:#000000;stroke-width:1.0;stroke-dasharray:2.0,2.0;" x1="20" x2="350" y1="519.7813" y2="519.7813"/><text fill="#000000" font-family="sans-serif" font-size="11" font-weight="bold" lengthAdjust="spacing" textLength="99" x="25" y="529.9917">[sasie invalide]</text><polygon fill="#A80036" points="88,550.7188,78,554.7188,88,558.7188,84,554.7188" style="stroke:#A80036;stroke-width:1.0;"/><line style="stroke:#A80036;stroke-width:1.0;stroke-dasharray:2.0,2.0;" x1="82" x2="324" y1="554.7188" y2="554.7188"/><text fill="#000000" font-family="sans-serif" font-size="13" lengthAdjust="spacing" textLength="120" x="94" y="549.6528">Formulaire invalide</text><polygon fill="#A80036" points="88,593.8516,78,597.8516,88,601.8516,84,597.8516" style="stroke:#A80036;stroke-width:1.0;"/><line style="stroke:#A80036;stroke-width:1.0;stroke-dasharray:2.0,2.0;" x1="82" x2="324" y1="597.8516" y2="597.8516"/><text fill="#000000" font-family="sans-serif" font-size="13" lengthAdjust="spacing" textLength="113" x="94" y="592.7856">Adoption finalisée</text><!--MD5=[b587bef0b3496a460af2a43121f05701]
@startuml uc_enregistrer_adoption

title UC : Enregistrer une adoption

actor Gestionnaire

Gestionnaire -> SI : Enregistrer une adoption
SI - -> Gestionnaire : OK, choix du maître

alt Maitre connu
    Gestionnaire -> SI : Choix du maître

else Maitre non connu
    ref over Gestionnaire, SI : VOIR UC : Enregistrer un maître
    Gestionnaire -> SI : Choix du maître
end

SI - -> Gestionnaire : OK, affichage formulaire d'adoption

loop TANT QUE : Saisie invalide
    Gestionnaire -> SI : Saisie formulaire
    SI -> SI : Vérification formulaire

    alt saisie valide
        SI - -> Gestionnaire : Formulaire OK
    else sasie invalide
        SI - -> Gestionnaire : Formulaire invalide
    end

end

SI - -> Gestionnaire : Adoption finalisée

@enduml

PlantUML version 1.2022.0(Tue Jan 11 17:16:42 CET 2022)
(GPL source distribution)
Java Runtime: OpenJDK Runtime Environment
JVM: OpenJDK 64-Bit Server VM
Default Encoding: UTF-8
Language: fr
Country: FR
--></g></svg>